<?xml version="1.0" standalone="no"?>
<!DOCTYPE svg PUBLIC "-//W3C//DTD SVG 20010904//EN"
 "http://www.w3.org/TR/2001/REC-SVG-20010904/DTD/svg10.dtd">
<svg version="1.0" xmlns="http://www.w3.org/2000/svg"
 width="432.000000pt" height="432.000000pt" viewBox="0 0 432.000000 432.000000"
 preserveAspectRatio="xMidYMid meet">
<metadata>
Created by potrace 1.11, written by Peter Selinger 2001-2013
</metadata>
<g transform="translate(0.000000,432.000000) scale(0.100000,-0.100000)"
fill="#000000" stroke="none">
<path d="M634 3859 c-17 -5 -39 -18 -49 -29 -23 -25 -26 -25 -59 5 -36 33 -75
32 -108 -2 -42 -44 -48 -73 -44 -212 4 -119 6 -133 35 -191 16 -35 28 -67 25
-71 -3 -5 -18 -46 -33 -91 -31 -89 -39 -131 -46 -255 -3 -43 -7 -89 -10 -103
-3 -14 -8 -36 -11 -50 -3 -14 -6 -88 -8 -165 -1 -78 -6 -146 -10 -153 -4 -6
-8 -71 -10 -144 -3 -136 -17 -202 -62 -288 -13 -25 -20 -67 -24 -145 -4 -93
-9 -116 -29 -148 -27 -44 -31 -108 -11 -156 15 -36 6 -52 -39 -71 -16 -6 -37
-26 -46 -44 -18 -33 -17 -49 4 -130 12 -48 0 -88 -52 -166 -21 -30 -38 -63
-38 -72 -1 -10 -2 -28 -3 -40 -3 -34 14 -79 45 -118 39 -49 41 -77 12 -146
-38 -89 -35 -150 12 -252 54 -116 78 -128 295 -147 30 -2 82 -7 115 -10 149
-14 1627 -21 2240 -11 237 4 606 10 820 12 548 6 558 7 589 27 l26 17 -5 178
c-3 97 -7 197 -9 222 -3 25 -8 88 -11 140 -3 52 -8 124 -11 160 -3 36 -7 200
-9 365 -3 278 7 473 30 586 8 45 -5 72 -57 118 -109 94 -101 204 33 441 25 46
30 62 25 98 -5 37 -1 48 28 90 57 79 68 111 72 191 2 53 12 103 34 166 34 99
39 155 16 188 -35 52 -244 256 -267 262 -46 12 -64 12 -94 3 -16 -5 -37 -11
-45 -13 -8 -2 -32 -10 -52 -19 -68 -29 -267 -37 -604 -23 -94 4 -181 9 -193
12 -15 3 -26 -4 -39 -23 -24 -38 -63 -70 -92 -76 -14 -3 -47 1 -75 8 -69 18
-114 12 -192 -28 -38 -19 -90 -37 -118 -41 -102 -12 -113 -16 -169 -65 -33
-29 -63 -47 -69 -43 -7 3 -31 20 -54 36 -35 24 -53 30 -93 30 -57 -1 -75 -11
-142 -77 l-47 -47 -38 17 c-103 45 -154 54 -228 40 -11 -2 -31 1 -45 7 -58 22
-97 13 -154 -37 -45 -40 -88 -49 -195 -42 -175 11 -206 30 -210 126 -5 135
-58 252 -138 301 -42 26 -216 97 -251 102 -15 2 -41 0 -58 -4z"/>
</g>
</svg>
