<svg id="e3478b9c-1c0b-4900-bec5-519e0080725f" data-name="Layer 2" xmlns="http://www.w3.org/2000/svg" viewBox="0 0 431.04279 342.03572"><defs><style>.b3a1e9a4-92e6-47e1-b79d-f490e9feff90{fill:#96abbc;stroke:#394f79;stroke-miterlimit:10;stroke-width:6px;}</style></defs><title>oregon</title><path class="b3a1e9a4-92e6-47e1-b79d-f490e9feff90" d="M40.03855,11.00451c-.9107,2.94488-.32519,4.72058,0,10,.39979,6.49048-.30639,6.70975,0,11,.90955,12.73721,8.04175,12.01761,5.5,19.5-.74084,2.18085-1.83825,6.45987-3.5,10.5a48.49778,48.49778,0,0,0-3,11c-.94433,5.77926-.7052,8.6044-1,14-.62481,11.436-2.37866,11.18344-3,22-.509,8.86026.712,8.2605,0,17-.66662,8.18237-1.78106,9.25027-2,17-.191,6.76279.61548,7.4422,0,13a61.41115,61.41115,0,0,1-3,13c-2.554,7.73462-3.6748,7.01166-5,12-2.33306,8.78235,1.26416,10.55975-1,19-1.91589,7.14191-4.88543,7.33758-5,13-.12561,6.207,3.40076,8.03595,2,12-1.71881,4.86407-7.713,4.04816-10,9-1.9367,4.19336,1.437,6.78107,2,13,1.11078,12.26861-10.79943,15.66876-10,27,.61786,8.75751,7.8866,8.91669,8,18,.10364,8.29938-5.93219,10.76257-5,20a27.00707,27.00707,0,0,0,4,11c.00007.00006,2.20652,9.9303,10,11,25.5,3.5,43.99988,4,44,4,46.5-1.5,91.3335,1.35718,137,1,59.66858-.46668,119.33033-2.29852,179-2,6.34205.03174,12.65955-1.1438,19-1,6.32142.14337,10.95875.73218,13-2,1.9679-2.63391-.03467-6.78637,0-8,.5-17.5-1.81506-39.34363-3-59,0-.00012-2.51745-41.76-1-67,.40394-6.71771,1-13.99988,1-14,.53711-6.56091.80567-9.84137,1-11,.918-5.47144,1.78431-6.68054,1-9-1.0332-3.05585-3.152-2.77655-7-7a24.07426,24.07426,0,0,1-6-11,21.80883,21.80883,0,0,1,0-8c1.63111-12.22324,8.8169-23.222,10-25a16.42984,16.42984,0,0,0,3-6c.97608-4.3934-1.01916-6.19336,0-10,.73023-2.72745,1.90589-2.36872,5-7a32.105,32.105,0,0,0,5-11c.97522-4.62326-.56323-4.58487,0-10,.50794-4.8837,1.858-5.86469,5-16a59.65415,59.65415,0,0,0,2-7c.19727-7.30908-6.48889-9.28638-20-25-1.78979-2.08154-3.25817-3.891-6-5-6.42285-2.59778-13.44445,1.23263-15,2-7.3955,3.64834-28.65295,5.85077-84,2-2.37817,3.86886-6.23046,8.61288-12,10-6.33215,1.5224-8.23681-2.61835-16-2-8.696.69266-9.639,6.15378-21,8-5.8009.94269-6.10876-.39111-10,1-7.90142,2.82471-8.47375,8.98251-14,10-6.06127,1.116-7.47259-5.90512-15-7-11.96118-1.73978-14.07855,14.86215-23.5,11.5-3.65313-1.30365-10.37335-5.06867-15.5-5.5-3.331-.28028-3.83142,1.01263-8,1-5.7127-.01734-7.06811-2.45246-11-2-4.01336.46182-4.97558,3.27212-9,6-6.7752,4.59241-14.65771,3.81875-23,3-7.83386-.76886-15.57031-1.52817-19-7-1.82287-2.9082-.873-4.66492-1.5-10.5-.399-3.7135-1.39849-15.291-9-23-3.35455-3.402-8.903-5.60135-20-10-6.17541-2.44785-9.07159-3.07273-12-2-4.04052,1.4801-4.73535,4.944-8,5-4.07409.06985-5.32342-5.2847-9-5C43.26786,3.75777,40.88847,8.25619,40.03855,11.00451Z"/></svg>